<svg width="13" height="24" viewBox="0 0 15 27" xmlns="http://www.w3.org/2000/svg">
<path d="M0.849739 26.0879C0.452517 25.6525 0.253906 25.0983 0.253906 24.4254C0.253906 23.7525 0.452517 23.1983 0.849739 22.7629L9.29974 13.5004L0.849739 4.23789C0.452517 3.80247 0.253906 3.24831 0.253906 2.57539C0.253906 1.90247 0.452517 1.34831 0.849739 0.91289C1.24696 0.477473 1.75252 0.259766 2.36641 0.259766C2.98029 0.259766 3.48585 0.477473 3.88307 0.91289L13.8497 11.8379C14.0664 12.0754 14.2202 12.3327 14.3112 12.6098C14.4008 12.8868 14.4456 13.1837 14.4456 13.5004C14.4456 13.8171 14.4008 14.1139 14.3112 14.391C14.2202 14.6681 14.0664 14.9254 13.8497 15.1629L3.88307 26.0879C3.48585 26.5233 2.98029 26.741 2.36641 26.741C1.75252 26.741 1.24696 26.5233 0.849739 26.0879Z"
/>
</svg>
