<svg width="150" height="150" viewBox="0 0 150 150"  xmlns="http://www.w3.org/2000/svg">
<path d="M71.5625 56.7969C71.5625 55.4915 71.0439 54.2396 70.1209 53.3166C69.1979 52.3936 67.946 51.875 66.6406 51.875C65.3353 51.875 64.0834 52.3936 63.1603 53.3166C62.2373 54.2396 61.7188 55.4915 61.7188 56.7969V99.4531C61.7188 100.758 62.2373 102.01 63.1603 102.933C64.0834 103.856 65.3353 104.375 66.6406 104.375C67.946 104.375 69.1979 103.856 70.1209 102.933C71.0439 102.01 71.5625 100.758 71.5625 99.4531V56.7969ZM110.938 56.7969C110.938 55.4915 110.419 54.2396 109.496 53.3166C108.573 52.3936 107.321 51.875 106.016 51.875C104.71 51.875 103.458 52.3936 102.535 53.3166C101.612 54.2396 101.094 55.4915 101.094 56.7969V99.4531C101.094 100.758 101.612 102.01 102.535 102.933C103.458 103.856 104.71 104.375 106.016 104.375C107.321 104.375 108.573 103.856 109.496 102.933C110.419 102.01 110.938 100.758 110.938 99.4531V56.7969ZM91.25 66.6406C91.25 65.3353 90.7314 64.0834 89.8084 63.1603C88.8854 62.2373 87.6335 61.7188 86.3281 61.7188C85.0228 61.7188 83.7709 62.2373 82.8478 63.1603C81.9248 64.0834 81.4062 65.3353 81.4062 66.6406V89.6094C81.4062 90.9147 81.9248 92.1666 82.8478 93.0897C83.7709 94.0127 85.0228 94.5312 86.3281 94.5312C87.6335 94.5312 88.8854 94.0127 89.8084 93.0897C90.7314 92.1666 91.25 90.9147 91.25 89.6094V66.6406ZM51.875 69.9219C51.875 68.6165 51.3564 67.3646 50.4334 66.4416C49.5104 65.5186 48.2585 65 46.9531 65C45.6478 65 44.3959 65.5186 43.4728 66.4416C42.5498 67.3646 42.0313 68.6165 42.0312 69.9219V86.3281C42.0313 87.6335 42.5498 88.8854 43.4728 89.8084C44.3959 90.7314 45.6478 91.25 46.9531 91.25C48.2585 91.25 49.5104 90.7314 50.4334 89.8084C51.3564 88.8854 51.875 87.6335 51.875 86.3281V69.9219ZM78.125 12.5C41.8803 12.5 12.5 41.8803 12.5 78.125C12.5 114.37 41.8803 143.75 78.125 143.75C114.37 143.75 143.75 114.37 143.75 78.125C143.75 41.8803 114.37 12.5 78.125 12.5ZM22.3438 78.125C22.3437 63.3309 28.2207 49.1427 38.6817 38.6817C49.1427 28.2207 63.3309 22.3438 78.125 22.3438C92.9191 22.3438 107.107 28.2207 117.568 38.6817C128.029 49.1427 133.906 63.3309 133.906 78.125C133.906 92.9191 128.029 107.107 117.568 117.568C107.107 128.029 92.9191 133.906 78.125 133.906C63.3309 133.906 49.1427 128.029 38.6817 117.568C28.2207 107.107 22.3438 92.9191 22.3438 78.125Z"/>
</svg>
