<svg width="40" height="40" viewBox="0 0 40 40" fill="none" xmlns="http://www.w3.org/2000/svg">
<path d="M20 35C15.8333 35 12.2917 33.5417 9.375 30.625C6.45833 27.7083 5 24.1667 5 20C5 15.8333 6.45833 12.2917 9.375 9.375C12.2917 6.45833 15.8333 5 20 5C20.3889 5 20.7711 5.01389 21.1467 5.04167C21.5222 5.06944 21.89 5.11111 22.25 5.16667C21.1111 5.97222 20.2011 7.02111 19.52 8.31333C18.8389 9.60556 18.4989 11.0011 18.5 12.5C18.5 15 19.375 17.125 21.125 18.875C22.875 20.625 25 21.5 27.5 21.5C29.0278 21.5 30.4306 21.1594 31.7083 20.4783C32.9861 19.7972 34.0278 18.8878 34.8333 17.75C34.8889 18.1111 34.9306 18.4789 34.9583 18.8533C34.9861 19.2278 35 19.61 35 20C35 24.1667 33.5417 27.7083 30.625 30.625C27.7083 33.5417 24.1667 35 20 35Z" fill="#0C0C0C"/>
</svg>
