<svg width="70" height="70" viewBox="0 0 70 70" fill="none" xmlns="http://www.w3.org/2000/svg">
<rect width="70" height="70" rx="35" fill="#F8F8F8"/>
<g clip-path="url(#clip0_49_436)">
<path d="M58 35C58 22.2975 47.7025 12 35 12C22.2975 12 12 22.2974 12 35C12 46.4799 20.4108 55.9952 31.4062 57.7206V41.6484H25.5664V35H31.4062V29.9328C31.4062 24.1684 34.8401 20.9844 40.0936 20.9844C42.6101 20.9844 45.2422 21.4336 45.2422 21.4336V27.0938H42.342C39.4846 27.0938 38.5938 28.8667 38.5938 30.6857V35H44.9727L43.9529 41.6484H38.5938V57.7206C49.5892 55.9952 58 46.4801 58 35Z" fill="#1877F2"/>
<path d="M43.9529 41.6484L44.9727 35H38.5938V30.6857C38.5938 28.8665 39.4848 27.0938 42.342 27.0938H45.2422V21.4336C45.2422 21.4336 42.6101 20.9844 40.0936 20.9844C34.8401 20.9844 31.4062 24.1684 31.4062 29.9328V35H25.5664V41.6484H31.4062V57.7206C32.5951 57.9069 33.7966 58.0003 35 58C36.2034 58.0004 37.4049 57.9069 38.5938 57.7206V41.6484H43.9529Z" fill="white"/>
</g>
<defs>
<clipPath id="clip0_49_436">
<rect width="46" height="46" fill="white" transform="translate(12 12)"/>
</clipPath>
</defs>
</svg>
