<svg width="13" height="24" viewBox="0 0 13 24"  xmlns="http://www.w3.org/2000/svg">
<path d="M12.0505 1.40039C12.3866 1.76706 12.5547 2.23372 12.5547 2.80039C12.5547 3.36706 12.3866 3.83373 12.0505 4.20039L4.90052 12.0004L12.0505 19.8004C12.3866 20.1671 12.5547 20.6337 12.5547 21.2004C12.5547 21.7671 12.3866 22.2337 12.0505 22.6004C11.7144 22.9671 11.2866 23.1504 10.7672 23.1504C10.2477 23.1504 9.81996 22.9671 9.48385 22.6004L1.05052 13.4004C0.867188 13.2004 0.737021 12.9837 0.660021 12.7504C0.584243 12.5171 0.546353 12.2671 0.546353 12.0004C0.546353 11.7337 0.584243 11.4837 0.660021 11.2504C0.737021 11.0171 0.867188 10.8004 1.05052 10.6004L9.48385 1.40039C9.81996 1.03373 10.2477 0.850389 10.7672 0.850389C11.2866 0.850389 11.7144 1.03373 12.0505 1.40039Z" />
</svg>
