<svg width="70" height="70" viewBox="0 0 70 70" fill="none" xmlns="http://www.w3.org/2000/svg">
<rect width="70" height="70" rx="35" fill="#F8F8F8"/>
<g clip-path="url(#clip0_49_430)">
<path d="M55.9796 34.9019C55.9796 33.1402 55.8367 31.8546 55.5274 30.5215H35.418V38.4729H47.2218C46.9839 40.4489 45.6988 43.4248 42.8429 45.4244L42.8029 45.6906L49.1612 50.6181L49.6017 50.6621C53.6473 46.9243 55.9796 41.4249 55.9796 34.9019Z" fill="#4285F4"/>
<path d="M35.4189 55.8526C41.2018 55.8526 46.0566 53.9479 49.6026 50.6627L42.8439 45.4251C41.0353 46.6868 38.6078 47.5677 35.4189 47.5677C29.755 47.5677 24.9478 43.8301 23.2342 38.6641L22.983 38.6854L16.3716 43.8039L16.2852 44.0443C19.8073 51.0435 27.0419 55.8526 35.4189 55.8526Z" fill="#34A853"/>
<path d="M23.2336 38.664C22.7814 37.3308 22.5198 35.9023 22.5198 34.4264C22.5198 32.9503 22.7814 31.5219 23.2098 30.1887L23.1978 29.9048L16.5036 24.7041L16.2846 24.8083C14.8329 27.7128 14 30.9744 14 34.4264C14 37.8784 14.8329 41.1398 16.2846 44.0443L23.2336 38.664Z" fill="#FBBC05"/>
<path d="M35.4189 21.2847C39.4408 21.2847 42.1537 23.0226 43.7007 24.4749L49.7454 18.5708C46.033 15.1188 41.2018 13 35.4189 13C27.0419 13 19.8073 17.8089 16.2852 24.8081L23.2104 30.1885C24.9478 25.0224 29.755 21.2847 35.4189 21.2847Z" fill="#EB4335"/>
</g>
<defs>
<clipPath id="clip0_49_430">
<rect width="42" height="43" fill="white" transform="translate(14 13)"/>
</clipPath>
</defs>
</svg>
