<svg width="130" height="126" viewBox="0 0 130 126" xmlns="http://www.w3.org/2000/svg">
<path d="M13.6673 126C10.1382 126 7.11591 124.628 4.60058 121.884C2.08524 119.14 0.829717 115.845 0.833995 112V14C0.833995 10.15 2.09166 6.85301 4.607 4.10901C7.12233 1.36501 10.1424 -0.00465478 13.6673 1.18846e-05H116.334C119.863 1.18846e-05 122.885 1.37201 125.401 4.11601C127.916 6.86001 129.172 10.1547 129.167 14V112C129.167 115.85 127.91 119.147 125.394 121.891C122.879 124.635 119.859 126.005 116.334 126H13.6673ZM13.6673 112H116.334V14H13.6673V112ZM20.084 98H52.1673V84H20.084V98ZM81.3632 84L113.126 49.35L103.982 39.375L81.3632 64.225L72.2194 54.25L63.2361 64.225L81.3632 84ZM20.084 70H52.1673V56H20.084V70ZM20.084 42H52.1673V28H20.084V42Z" />
</svg>
