<svg width="38" height="38" viewBox="0 0 38 38" fill="none" xmlns="http://www.w3.org/2000/svg">
<path d="M19.0007 26.9163C16.8104 26.9163 14.9431 26.1442 13.3988 24.5999C11.8545 23.0557 11.0829 21.1889 11.084 18.9997C11.084 16.8094 11.8561 14.9421 13.4004 13.3978C14.9447 11.8536 16.8114 11.082 19.0007 11.083C21.1909 11.083 23.0582 11.8552 24.6025 13.3994C26.1468 14.9437 26.9184 16.8105 26.9173 18.9997C26.9173 21.19 26.1452 23.0572 24.6009 24.6015C23.0566 26.1458 21.1899 26.9174 19.0007 26.9163ZM3.16732 20.583C2.71871 20.583 2.34241 20.431 2.03841 20.127C1.73441 19.823 1.58293 19.4472 1.58399 18.9997C1.58399 18.5511 1.73599 18.1748 2.03999 17.8708C2.34399 17.5668 2.71977 17.4153 3.16732 17.4163H6.33399C6.7826 17.4163 7.15891 17.5683 7.46291 17.8723C7.76691 18.1763 7.91838 18.5521 7.91732 18.9997C7.91732 19.4483 7.76532 19.8246 7.46132 20.1286C7.15732 20.4326 6.78155 20.5841 6.33399 20.583H3.16732ZM31.6673 20.583C31.2187 20.583 30.8424 20.431 30.5384 20.127C30.2344 19.823 30.0829 19.4472 30.084 18.9997C30.084 18.5511 30.236 18.1748 30.54 17.8708C30.844 17.5668 31.2198 17.4153 31.6673 17.4163H34.834C35.2826 17.4163 35.6589 17.5683 35.9629 17.8723C36.2669 18.1763 36.4184 18.5521 36.4173 18.9997C36.4173 19.4483 36.2653 19.8246 35.9613 20.1286C35.6573 20.4326 35.2815 20.5841 34.834 20.583H31.6673ZM19.0007 7.91635C18.552 7.91635 18.1757 7.76435 17.8717 7.46035C17.5677 7.15635 17.4163 6.78057 17.4173 6.33301V3.16635C17.4173 2.71774 17.5693 2.34143 17.8733 2.03743C18.1773 1.73343 18.5531 1.58196 19.0007 1.58301C19.4493 1.58301 19.8256 1.73501 20.1296 2.03901C20.4336 2.34301 20.585 2.71879 20.584 3.16635V6.33301C20.584 6.78162 20.432 7.15793 20.128 7.46193C19.824 7.76593 19.4482 7.9174 19.0007 7.91635ZM19.0007 36.4163C18.552 36.4163 18.1757 36.2643 17.8717 35.9603C17.5677 35.6563 17.4163 35.2806 17.4173 34.833V31.6663C17.4173 31.2177 17.5693 30.8414 17.8733 30.5374C18.1773 30.2334 18.5531 30.082 19.0007 30.083C19.4493 30.083 19.8256 30.235 20.1296 30.539C20.4336 30.843 20.585 31.2188 20.584 31.6663V34.833C20.584 35.2816 20.432 35.6579 20.128 35.9619C19.824 36.2659 19.4482 36.4174 19.0007 36.4163ZM8.94649 11.1622L7.24441 9.49968C6.92774 9.2094 6.77574 8.83996 6.78841 8.39135C6.80107 7.94274 6.95307 7.5601 7.24441 7.24343C7.56107 6.92676 7.94371 6.76843 8.39232 6.76843C8.84093 6.76843 9.21038 6.92676 9.50066 7.24343L11.1632 8.94551C11.4534 9.26218 11.5986 9.63162 11.5986 10.0538C11.5986 10.4761 11.4534 10.8455 11.1632 11.1622C10.8729 11.4788 10.5103 11.6308 10.0754 11.6182C9.64052 11.6055 9.26421 11.4535 8.94649 11.1622ZM28.5007 30.7559L26.8382 29.0538C26.5479 28.7372 26.4027 28.3609 26.4027 27.9249C26.4027 27.489 26.5479 27.1264 26.8382 26.8372C27.1284 26.5205 27.4915 26.369 27.9275 26.3828C28.3634 26.3965 28.7392 26.548 29.0548 26.8372L30.7569 28.4997C31.0736 28.79 31.2256 29.1594 31.2129 29.608C31.2002 30.0566 31.0482 30.4393 30.7569 30.7559C30.4402 31.0726 30.0576 31.2309 29.609 31.2309C29.1604 31.2309 28.7909 31.0726 28.5007 30.7559ZM26.8382 11.1622C26.5215 10.8719 26.3695 10.5093 26.3822 10.0744C26.3948 9.63954 26.5468 9.26324 26.8382 8.94551L28.5007 7.24343C28.7909 6.92676 29.1604 6.77476 29.609 6.78743C30.0576 6.8001 30.4402 6.9521 30.7569 7.24343C31.0736 7.5601 31.2319 7.94274 31.2319 8.39135C31.2319 8.83996 31.0736 9.2094 30.7569 9.49968L29.0548 11.1622C28.7382 11.4525 28.3687 11.5976 27.9465 11.5976C27.5243 11.5976 27.1548 11.4525 26.8382 11.1622ZM7.24441 30.7559C6.92774 30.4393 6.76941 30.0566 6.76941 29.608C6.76941 29.1594 6.92774 28.79 7.24441 28.4997L8.94649 26.8372C9.26316 26.5469 9.63893 26.4018 10.0738 26.4018C10.5087 26.4018 10.8718 26.5469 11.1632 26.8372C11.4798 27.1275 11.6318 27.4906 11.6192 27.9265C11.6065 28.3625 11.4545 28.7382 11.1632 29.0538L9.50066 30.7559C9.21038 31.0726 8.84093 31.2246 8.39232 31.2119C7.94371 31.1993 7.56107 31.0473 7.24441 30.7559Z" fill="white"/>
</svg>
