<svg width="150" height="111" viewBox="0 0 150 111" fill="none" xmlns="http://www.w3.org/2000/svg">
<path d="M148.666 56.0274C148.028 54.9067 147.173 53.9243 146.151 53.1376C145.13 52.3509 143.961 51.7756 142.715 51.4454C138.193 50.2814 133.52 49.8134 128.856 50.0577C131.357 37.6495 129.481 27.8355 127.569 22.0159C126.806 19.6253 125.181 17.6043 123.009 16.347C120.838 15.0896 118.276 14.686 115.823 15.2148C109.462 16.6315 103.414 19.1991 97.9766 22.791C93.9944 14.6563 88.1965 7.5452 81.0303 2.00656C79.2936 0.70408 77.1814 0 75.0106 0C72.8398 0 70.7275 0.70408 68.9909 2.00656C61.8231 7.54359 56.0248 14.6551 52.0446 22.791C46.6072 19.1991 40.5589 16.6315 34.1981 15.2148C31.7452 14.686 29.1833 15.0896 27.0118 16.347C24.8403 17.6043 23.2149 19.6253 22.4525 22.0159C20.5772 27.8355 18.7019 37.6433 21.1648 50.0577C16.5017 49.8134 11.8285 50.2814 7.30642 51.4454C6.0599 51.7756 4.89165 52.3509 3.86991 53.1376C2.84816 53.9243 1.99339 54.9067 1.35551 56.0274C0.687936 57.1754 0.255682 58.4449 0.0839643 59.7617C-0.0877536 61.0786 0.00450276 62.4165 0.355351 63.6973C2.47443 71.5548 8.98168 86.5008 28.691 98.2776C48.4002 110.054 65.7154 110.017 75.0418 110.017C84.3683 110.017 101.715 110.017 121.299 98.2776C141.008 86.5008 147.515 71.5548 149.635 63.6973C149.99 62.4185 150.088 61.0818 149.921 59.7649C149.755 58.4481 149.328 57.1776 148.666 56.0274ZM31.9665 25.0914C31.9739 25.0603 31.993 25.0333 32.0197 25.0159C32.0464 24.9985 32.0788 24.9919 32.1102 24.9976C37.9267 26.3115 43.4156 28.7933 48.244 32.2925C46.0455 39.4846 44.9537 46.9692 45.006 54.4896C45.006 66.2039 47.3626 75.7429 50.7006 83.4191C45.9551 78.6695 41.8491 73.3215 38.4862 67.5104C27.222 47.8949 29.5661 32.505 31.9665 25.0914ZM33.8418 89.6951C17.1704 79.7435 11.7634 67.5416 10.0006 61.0719C14.6002 59.9395 19.373 59.6913 24.0652 60.3405C25.6317 64.5366 27.5449 68.595 29.7849 72.4736C35.2848 81.9559 42.4903 90.3397 51.0381 97.2025C44.9938 95.4646 39.2038 92.9406 33.8167 89.6951H33.8418ZM75.0106 99.0152C69.1784 94.6771 55.0075 81.3688 55.0075 54.4896C55.0075 27.9418 68.9972 14.5272 75.0106 10.0015C81.024 14.5397 95.0137 27.9543 95.0137 54.5021C95.0137 81.3688 80.8427 94.6771 75.0106 99.0152ZM101.777 32.2925C106.606 28.7955 112.095 26.3159 117.911 25.0038C117.942 24.9982 117.975 25.0047 118.001 25.0222C118.028 25.0396 118.047 25.0666 118.055 25.0976C120.455 32.505 122.799 47.8949 111.535 67.5104C108.175 73.3292 104.069 78.6837 99.3206 83.4378C102.659 75.7742 105.015 66.2227 105.015 54.5084C105.069 46.9817 103.978 39.4906 101.777 32.2925ZM140.021 61.0844C138.289 67.4916 132.894 79.7185 116.211 89.6951C110.823 92.9384 105.033 95.4604 98.9893 97.1962C107.537 90.3335 114.743 81.9496 120.243 72.4674C122.483 68.5888 124.396 64.5304 125.962 60.3343C130.653 59.6879 135.424 59.9404 140.021 61.0782V61.0844Z" />
</svg>
