<svg width="32" height="24" viewBox="0 0 32 24"  xmlns="http://www.w3.org/2000/svg">
<path d="M16.0007 0.724609L15.6877 0.843359L3.1877 6.07836L0.345703 7.24961L2.0007 7.91211V18.8496C1.4037 19.2834 1.0007 20.0746 1.0007 20.9996C1.0007 21.6626 1.21142 22.2985 1.58649 22.7674C1.96156 23.2362 2.47027 23.4996 3.0007 23.4996C3.53114 23.4996 4.03984 23.2362 4.41492 22.7674C4.78999 22.2985 5.0007 21.6626 5.0007 20.9996C5.0007 20.0746 4.5977 19.2834 4.0007 18.8496V8.77461L6.0007 9.59336V15.9996C6.0007 17.0246 6.5007 17.8746 7.0947 18.4621C7.6887 19.0459 8.4267 19.4584 9.3127 19.8284C11.0867 20.5659 13.4247 20.9996 16.0007 20.9996C18.5767 20.9996 20.9147 20.5671 22.6887 19.8271C23.5747 19.4584 24.3127 19.0459 24.9067 18.4609C25.5007 17.8746 26.0007 17.0246 26.0007 15.9996V9.59336L28.8137 8.42086L31.6557 7.24961L28.8127 6.07711L16.3127 0.843359L16.0007 0.724609ZM16.0007 3.34336L25.3757 7.24961L16.0007 11.1559L6.6257 7.24961L16.0007 3.34336ZM8.0007 10.4534L15.6887 13.6559L16.0007 13.7734L16.3137 13.6546L24.0007 10.4521V15.9996C24.0007 16.0121 24.0047 16.1571 23.6877 16.4684C23.3717 16.7809 22.8047 17.1746 22.0627 17.4846C20.5807 18.1009 18.3957 18.4996 16.0007 18.4996C13.6057 18.4996 11.4207 18.1021 9.9377 17.4834C9.1977 17.1746 8.6297 16.7796 8.3137 16.4684C7.9957 16.1559 8.0007 16.0121 8.0007 15.9996V10.4534Z" fill="black"/>
</svg>
