<svg width="126" height="145" viewBox="0 0 126 145"  xmlns="http://www.w3.org/2000/svg">
<path d="M15.75 145C11.4188 145 7.70964 143.579 4.62264 140.737C1.53564 137.895 -0.00523663 134.483 1.33701e-05 130.5V43.5C1.33701e-05 39.5125 1.54351 36.0977 4.63051 33.2557C7.71751 30.4137 11.424 28.9952 15.75 29H31.5C31.5 21.025 34.5844 14.1979 40.7531 8.51875C46.9219 2.83958 54.3375 0 63 0C71.6625 0 79.0781 2.83958 85.2469 8.51875C91.4156 14.1979 94.5 21.025 94.5 29H110.25C114.581 29 118.29 30.421 121.377 33.263C124.464 36.105 126.005 39.5173 126 43.5V130.5C126 134.487 124.456 137.902 121.369 140.744C118.282 143.586 114.576 145.005 110.25 145H15.75ZM15.75 130.5H110.25V43.5H94.5V58C94.5 60.0542 93.744 61.7772 92.232 63.1692C90.72 64.5612 88.851 65.2548 86.625 65.25C84.3937 65.25 82.5221 64.554 81.0101 63.162C79.4981 61.77 78.7447 60.0493 78.75 58V43.5H47.25V58C47.25 60.0542 46.494 61.7772 44.982 63.1692C43.47 64.5612 41.601 65.2548 39.375 65.25C37.1438 65.25 35.2721 64.554 33.7601 63.162C32.2481 61.77 31.4948 60.0493 31.5 58V43.5H15.75V130.5ZM47.25 29H78.75C78.75 25.0125 77.2065 21.5977 74.1195 18.7557C71.0325 15.9137 67.326 14.4952 63 14.5C58.6688 14.5 54.9596 15.921 51.8726 18.763C48.7856 21.605 47.2448 25.0173 47.25 29Z" />
</svg>
