<svg width="70" height="70" viewBox="0 0 70 70" fill="none" xmlns="http://www.w3.org/2000/svg">
<rect width="70" height="70" rx="35" fill="#F8F8F8"/>
<path d="M57.1094 25.2654L51.5648 30.7916C50.4633 43.6248 39.6312 53.5939 26.6879 53.5939C24.0258 53.5939 21.8226 53.1717 20.1519 52.3455C18.8117 51.6662 18.2609 50.9502 18.114 50.7299C17.9925 50.5453 17.9142 50.3357 17.885 50.1166C17.8557 49.8976 17.8763 49.6748 17.9451 49.4648C18.0139 49.2548 18.1292 49.063 18.2824 48.9038C18.4357 48.7445 18.6229 48.6219 18.8301 48.5451C18.8668 48.5267 23.1996 46.8744 26.0086 43.6982C24.2665 42.4578 22.7354 40.9453 21.4738 39.2185C18.9586 35.8037 16.2965 29.8736 17.8937 21.0244C17.9439 20.7613 18.0643 20.5167 18.242 20.3163C18.4197 20.116 18.6483 19.9673 18.9035 19.8861C19.1595 19.8023 19.4337 19.7905 19.696 19.852C19.9582 19.9135 20.1986 20.046 20.3906 20.2349C20.4457 20.3084 26.5594 26.3303 34.0316 28.2763V27.1564C34.0388 25.9919 34.2753 24.8402 34.7277 23.7671C35.18 22.694 35.8392 21.7205 36.6678 20.9022C37.4963 20.0839 38.4779 19.4367 39.5566 18.9978C40.6352 18.5589 41.7898 18.3367 42.9543 18.3439C44.4827 18.3657 45.9794 18.783 47.2985 19.5552C48.6177 20.3274 49.7143 21.4282 50.4816 22.7502H56.0629C56.3528 22.7493 56.6366 22.8342 56.8784 22.9943C57.1201 23.1544 57.3091 23.3825 57.4215 23.6498C57.5273 23.9211 57.5541 24.2168 57.4989 24.5027C57.4437 24.7886 57.3086 25.053 57.1094 25.2654Z" fill="#1877F2"/>
</svg>
