<svg width="22" height="24" viewBox="0 0 22 24" fill="none" xmlns="http://www.w3.org/2000/svg">
<path fill-rule="evenodd" clip-rule="evenodd" d="M11 13.1663C13.7953 13.1663 16.3375 13.976 18.2077 15.1158C19.141 15.6875 19.939 16.3583 20.5153 17.0875C21.0823 17.8062 21.5 18.6648 21.5 19.583C21.5 20.5688 21.0205 21.3458 20.3298 21.9C19.6765 22.425 18.8143 22.7727 17.8985 23.0153C16.0575 23.5018 13.6005 23.6663 11 23.6663C8.3995 23.6663 5.9425 23.503 4.1015 23.0153C3.18567 22.7727 2.3235 22.425 1.67017 21.9C0.978333 21.3447 0.5 20.5688 0.5 19.583C0.5 18.6648 0.917667 17.8062 1.48467 17.0875C2.061 16.3583 2.85783 15.6875 3.79233 15.1158C5.6625 13.976 8.20583 13.1663 11 13.1663ZM11 15.4997C8.63983 15.4997 6.5165 16.188 5.008 17.1085C4.25317 17.5682 3.68383 18.0675 3.31633 18.5342C2.93833 19.0125 2.83333 19.3742 2.83333 19.583C2.83333 19.7253 2.8765 19.8758 3.13083 20.08C3.42133 20.3133 3.9265 20.5548 4.69883 20.759C6.2365 21.1673 8.44617 21.333 11 21.333C13.555 21.333 15.7635 21.1662 17.3 20.759C18.0735 20.5548 18.5787 20.3133 18.8692 20.08C19.1235 19.8758 19.1667 19.7253 19.1667 19.583C19.1667 19.373 19.0617 19.0125 18.6848 18.5342C18.3162 18.0675 17.7468 17.5682 16.992 17.1085C15.4835 16.1868 13.3602 15.4997 11 15.4997ZM11 0.333008C12.5471 0.333008 14.0308 0.947589 15.1248 2.04155C16.2188 3.13551 16.8333 4.61925 16.8333 6.16634C16.8333 7.71344 16.2188 9.19717 15.1248 10.2911C14.0308 11.3851 12.5471 11.9997 11 11.9997C9.4529 11.9997 7.96917 11.3851 6.87521 10.2911C5.78125 9.19717 5.16667 7.71344 5.16667 6.16634C5.16667 4.61925 5.78125 3.13551 6.87521 2.04155C7.96917 0.947589 9.4529 0.333008 11 0.333008ZM11 2.66634C10.5404 2.66634 10.0852 2.75687 9.66061 2.93276C9.23597 3.10865 8.85013 3.36646 8.52513 3.69147C8.20012 4.01647 7.94231 4.40231 7.76642 4.82695C7.59053 5.25159 7.5 5.70672 7.5 6.16634C7.5 6.62597 7.59053 7.08109 7.76642 7.50573C7.94231 7.93037 8.20012 8.31621 8.52513 8.64122C8.85013 8.96622 9.23597 9.22403 9.66061 9.39992C10.0852 9.57581 10.5404 9.66634 11 9.66634C11.9283 9.66634 12.8185 9.29759 13.4749 8.64122C14.1313 7.98484 14.5 7.0946 14.5 6.16634C14.5 5.23808 14.1313 4.34785 13.4749 3.69147C12.8185 3.03509 11.9283 2.66634 11 2.66634Z" fill="black"/>
</svg>
