<svg width="25" height="25" viewBox="-5 0 290 260" fill="none" xmlns="http://www.w3.org/2000/svg">
<path d="M6.87036 6.2977C11.4505 2.09923 17.2798 0 24.3582 0C31.4366 0 37.2659 2.09923 41.8461 6.2977L139.278 95.6107L236.711 6.2977C241.291 2.09923 247.12 0 254.199 0C261.277 0 267.106 2.09923 271.686 6.2977C276.267 10.4962 278.557 15.8397 278.557 22.3282C278.557 28.8168 276.267 34.1603 271.686 38.3588L156.766 143.702C154.268 145.992 151.562 147.618 148.647 148.58C145.732 149.527 142.609 150 139.278 150C135.947 150 132.825 149.527 129.91 148.58C126.995 147.618 124.289 145.992 121.791 143.702L6.87036 38.3588C2.29021 34.1603 9.1658e-05 28.8168 9.1658e-05 22.3282C9.1658e-05 15.8397 2.29021 10.4962 6.87036 6.2977Z" fill="white"/>
</svg>
